<svg height="512pt" viewBox="-56 0 512 512" width="512pt" xmlns="http://www.w3.org/2000/svg"><path d="m344.136719 118.65625c-41.25-76.515625-92.414063-118.65625-144.066407-118.65625-51.652343 0-102.816406 42.140625-144.066406 118.65625-34.019531 63.101562-55.99999975 141.101562-55.99999975 198.710938 0 1.351562.01171875 2.699218.03515625 4.042968.9218755 51.113282 20.7734375 99.015625 55.9062495 134.886719 35.183594 35.921875 81.601563 55.703125 130.707032 55.703125h26.835937c49.105469 0 95.523438-19.78125 130.707031-55.703125 35.132813-35.871094 54.984376-83.773437 55.90625-134.890625.023438-1.34375.035157-2.691406.035157-4.039062 0-57.609376-21.980469-135.609376-56-198.710938zm0 0" fill="#deecf1"/><path d="m344.136719 118.65625c-41.25-76.515625-92.414063-118.65625-144.066407-118.65625v512h13.417969c49.105469 0 95.523438-19.78125 130.707031-55.703125 35.132813-35.871094 54.984376-83.773437 55.90625-134.890625.023438-1.34375.035157-2.691406.035157-4.039062 0-57.609376-21.980469-135.609376-56-198.710938zm0 0" fill="#c6e2e7"/><path d="m103.703125 317.585938c-8.285156 0-15-6.71875-15-15v-43.042969c0-8.28125 6.714844-15 15-15 8.28125 0 15 6.71875 15 15v43.042969c0 8.28125-6.71875 15-15 15zm0 0" fill="#a8d3d8"/><path d="m167.945312 317.585938c-8.28125 0-15-6.71875-15-15v-60c0-8.285157 6.71875-15 15-15 8.285157 0 15 6.714843 15 15v60c0 8.28125-6.714843 15-15 15zm0 0" fill="#a8d3d8"/><path d="m399.617188 301.605469-.910157-14.027344-99.664062 66.789063-98.953125-66.789063h-198.65625l-.914063 14.027344c-.34375 5.332031-.519531 10.632812-.519531 15.765625 0 1.378906.0117188 2.761718.0429688 4.039062.9179692 51.113282 20.7695312 99.019532 55.9023432 134.886719 35.179688 35.921875 81.597657 55.703125 130.703126 55.703125h26.839843c49.109375 0 95.527344-19.78125 130.707031-55.703125 35.128907-35.867187 54.984376-83.773437 55.902344-134.792969.03125-1.371094.042969-2.753906.042969-4.132812 0-5.132813-.175781-10.433594-.523437-15.765625zm0 0" fill="#ff7816"/><path d="m232.191406 317.585938c-8.28125 0-15-6.71875-15-15v-43.042969c0-8.28125 6.71875-15 15-15 8.285156 0 15 6.71875 15 15v43.042969c0 8.28125-6.714844 15-15 15zm0 0" fill="#8ebac5"/><path d="m296.4375 317.585938c-8.285156 0-15-6.71875-15-15v-60c0-8.285157 6.714844-15 15-15s15 6.714843 15 15v60c0 8.28125-6.714844 15-15 15zm0 0" fill="#8ebac5"/><path d="m399.617188 301.605469-.910157-14.027344h-198.636719v224.421875h13.417969c49.109375 0 95.527344-19.78125 130.707031-55.703125 35.128907-35.867187 54.984376-83.773437 55.902344-134.792969.03125-1.371094.042969-2.753906.042969-4.132812 0-5.132813-.175781-10.433594-.523437-15.765625zm0 0" fill="#ff4b00"/><path d="m232.191406 378.023438c7.847656 0 15.363282-6.902344 15-15-.363281-8.128907-6.589844-15-15-15-7.84375 0-15.363281 6.898437-15 15 .367188 8.125 6.589844 15 15 15zm0 0" fill="#53433f"/></svg>