<svg height="511pt" viewBox="0 -24 511.9993 511" width="511pt" xmlns="http://www.w3.org/2000/svg"><path d="m294.730469 5.761719c-1.121094-.074219-2.113281.746093-2.25 1.863281l-3.355469 27.253906 34.09375 20.539063s1.417969-47.613281-28.488281-49.65625zm0 0" fill="#e8e8e8"/><path d="m217.269531 5.761719c1.121094-.074219 2.113281.746093 2.25 1.863281l3.355469 27.253906-34.09375 20.539063s-1.417969-47.613281 28.488281-49.65625zm0 0" fill="#e8e8e8"/><g fill="#de8957"><path d="m150.304688 250.730469c-7.546876 0-14.992188-3.484375-19.773438-10.054688-22.804688-31.34375-36.785156-38.421875-50.308594-45.265625-22.492187-11.382812-40.148437-22.933594-62.566406-68.109375-5.996094-12.082031-1.0625-26.742187 11.023438-32.742187 12.085937-5.996094 26.746093-1.0625 32.742187 11.023437 16.933594 34.125 26.453125 38.941407 40.863281 46.238281 16.9375 8.570313 38.015625 19.238282 67.753906 60.109376 7.9375 10.910156 5.53125 26.1875-5.378906 34.125-4.339844 3.15625-9.367187 4.675781-14.355468 4.675781zm0 0"/><path d="m193.964844 166.828125c-8.152344 0-16.117188-4.078125-20.75-11.5-20.519532-32.890625-33.964844-40.941406-46.964844-48.726563-21.625-12.957031-38.414062-25.734374-57.5625-72.390624-5.121094-12.480469.84375-26.753907 13.324219-31.875 12.480469-5.121094 26.753906.84375 31.875 13.324218 14.464843 35.242188 23.617187 40.722656 37.472656 49.023438 16.285156 9.757812 36.550781 21.894531 63.308594 64.777344 7.140625 11.449218 3.652343 26.515624-7.796875 33.660156-4.023438 2.507812-8.492188 3.707031-12.90625 3.707031zm0 0"/><path d="m24.402344 340.890625c-12.035156 0-22.515625-8.894531-24.179688-21.152344-1.808594-13.367187 7.558594-25.675781 20.929688-27.488281 37.746094-5.117188 45.359375-12.59375 56.882812-23.910156 13.542969-13.300782 30.398438-29.851563 78.640625-44.9375 12.875-4.027344 26.578125 3.144531 30.605469 16.023437 4.027344 12.875-3.144531 26.578125-16.023438 30.605469-36.996093 11.570312-48.175781 22.550781-58.988281 33.167969-17.988281 17.664062-34.582031 30.695312-84.558593 37.46875-1.109376.148437-2.214844.222656-3.308594.222656zm0 0"/><path d="m73.097656 464.058594c-7.710937 0-15.292968-3.636719-20.042968-10.433594-7.730469-11.058594-5.035157-26.289062 6.023437-34.019531 31.21875-21.828125 34.566406-31.960938 39.628906-47.296875 5.953125-18.023438 13.363281-40.453125 49.347657-75.949219 9.605468-9.476563 25.074218-9.367187 34.546874.238281 9.476563 9.605469 9.371094 25.070313-.234374 34.546875-27.597657 27.21875-32.511719 42.097657-37.265626 56.488281-7.90625 23.941407-16.695312 43.117188-58.027343 72.015626-4.261719 2.980468-9.144531 4.410156-13.976563 4.410156zm0 0"/><path d="m361.691406 250.730469c7.550782 0 14.992188-3.484375 19.773438-10.054688 22.808594-31.34375 36.789062-38.421875 50.308594-45.265625 22.496093-11.382812 40.152343-22.933594 62.570312-68.109375 5.996094-12.082031 1.0625-26.742187-11.023438-32.742187-12.085937-5.996094-26.746093-1.0625-32.742187 11.023437-16.933594 34.125-26.453125 38.941407-40.863281 46.238281-16.9375 8.570313-38.015625 19.238282-67.753906 60.109376-7.941407 10.910156-5.53125 26.1875 5.378906 34.125 4.335937 3.15625 9.367187 4.675781 14.351562 4.675781zm0 0"/><path d="m318.035156 166.828125c8.152344 0 16.117188-4.078125 20.75-11.5 20.519532-32.890625 33.960938-40.941406 46.960938-48.726563 21.628906-12.957031 38.417968-25.734374 57.566406-72.390624 5.121094-12.480469-.84375-26.753907-13.324219-31.875-12.484375-5.121094-26.753906.84375-31.878906 13.324218-14.460937 35.242188-23.613281 40.722656-37.472656 49.023438-16.28125 9.757812-36.546875 21.894531-63.304688 64.777344-7.140625 11.449218-3.652343 26.515624 7.792969 33.660156 4.027344 2.507812 8.496094 3.707031 12.910156 3.707031zm0 0"/><path d="m487.597656 340.890625c12.035156 0 22.515625-8.894531 24.175782-21.152344 1.8125-13.367187-7.554688-25.675781-20.925782-27.488281-37.746094-5.117188-45.359375-12.59375-56.882812-23.910156-13.546875-13.300782-30.398438-29.851563-78.640625-44.9375-12.875-4.027344-26.582031 3.144531-30.605469 16.023437-4.027344 12.875 3.144531 26.578125 16.023438 30.605469 36.996093 11.570312 48.175781 22.550781 58.988281 33.167969 17.984375 17.664062 34.582031 30.695312 84.554687 37.46875 1.113282.148437 2.21875.222656 3.3125.222656zm0 0"/><path d="m438.902344 464.058594c7.707031 0 15.292968-3.636719 20.042968-10.433594 7.730469-11.058594 5.035157-26.289062-6.023437-34.019531-31.21875-21.828125-34.566406-31.960938-39.632813-47.296875-5.953124-18.023438-13.359374-40.453125-49.347656-75.949219-9.605468-9.476563-25.070312-9.367187-34.546875.238281-9.472656 9.605469-9.367187 25.070313.238281 34.546875 27.597657 27.21875 32.511719 42.097657 37.265626 56.488281 7.90625 23.941407 16.695312 43.117188 58.027343 72.015626 4.261719 2.980468 9.144531 4.410156 13.976563 4.410156zm0 0"/></g><path d="m389.507812 163.269531c-13.105468 8.785157-28.558593 22.558594-47.546874 48.65625-7.941407 10.910157-5.53125 26.191407 5.378906 34.128907 4.335937 3.15625 9.367187 4.675781 14.351562 4.675781 7.550782 0 14.992188-3.484375 19.773438-10.054688 13.121094-18.03125 23.316406-28.023437 32.1875-34.570312-5.957032-15.503907-14.132813-29.914063-24.144532-42.835938zm0 0" fill="#c76d33"/><path d="m424.660156 259.511719c-12.773437-11.40625-31.292968-24.214844-69.335937-36.113281-12.875-4.023438-26.582031 3.148437-30.605469 16.027343-4.027344 12.875 3.144531 26.578125 16.023438 30.605469 36.996093 11.570312 48.175781 22.550781 58.988281 33.167969 5.683593 5.582031 11.230469 10.699219 17.730469 15.300781 4.8125-17.277344 7.351562-34.855469 7.351562-52.042969 0-2.328125-.058594-4.640625-.152344-6.945312zm0 0" fill="#c76d33"/><path d="m363.941406 296.359375c-9.605468-9.476563-25.070312-9.367187-34.546875.238281-9.472656 9.605469-9.367187 25.070313.238281 34.546875 27.597657 27.21875 32.511719 42.097657 37.265626 56.488281 1.726562 5.234376 3.5 10.242188 5.644531 15.175782 1.769531-2.074219 3.519531-4.191406 5.230469-6.363282 10.992187-13.925781 20.253906-29.136718 27.578124-45.027343-6.691406-14.414063-18-31.972657-41.410156-55.058594zm0 0" fill="#c76d33"/><path d="m182.605469 296.597656c-9.476563-9.605468-24.945313-9.714844-34.546875-.238281-23.40625 23.085937-34.71875 40.644531-41.410156 55.0625 7.328124 15.886719 16.585937 31.097656 27.574218 45.023437 1.714844 2.171876 3.464844 4.289063 5.234375 6.363282 2.144531-4.929688 3.917969-9.9375 5.644531-15.175782 4.753907-14.386718 9.667969-29.265624 37.265626-56.488281 9.605468-9.476562 9.710937-24.941406.238281-34.546875zm0 0" fill="#c76d33"/><path d="m187.28125 239.425781c-4.027344-12.878906-17.730469-20.050781-30.605469-16.027343-38.042969 11.898437-56.5625 24.707031-69.335937 36.113281-.09375 2.304687-.15625 4.617187-.15625 6.945312 0 17.191407 2.542968 34.765625 7.355468 52.046875 6.5-4.605468 12.046876-9.722656 17.730469-15.304687 10.8125-10.617188 21.992188-21.597657 58.988281-33.167969 12.878907-4.027344 20.050782-17.730469 16.023438-30.605469zm0 0" fill="#c76d33"/><path d="m122.492188 163.269531c-10.011719 12.921875-18.191407 27.332031-24.144532 42.835938 8.871094 6.546875 19.066406 16.539062 32.183594 34.570312 4.78125 6.570313 12.226562 10.054688 19.773438 10.054688 4.984374 0 10.015624-1.519531 14.355468-4.675781 10.910156-7.9375 13.316406-23.21875 5.378906-34.128907-18.988281-26.097656-34.445312-39.871093-47.546874-48.65625zm0 0" fill="#c76d33"/><path d="m393.910156 266.457031c0 76.164063-61.746094 164.558594-137.910156 164.558594s-137.910156-88.394531-137.910156-164.558594c0-76.164062 61.746094-137.910156 137.910156-137.910156s137.910156 61.746094 137.910156 137.910156zm0 0" fill="#3d4851"/><path d="m159.296875 266.457031c0-69.164062 50.914063-126.429687 117.304687-136.375-6.71875-1.007812-13.601562-1.535156-20.601562-1.535156-76.164062 0-137.910156 61.746094-137.910156 137.910156 0 76.164063 61.746094 164.558594 137.910156 164.558594 7 0 13.882812-.75 20.601562-2.167969-66.390624-13.988281-117.304687-93.226562-117.304687-162.390625zm0 0" fill="#333a41"/><path d="m384.503906 107.34375c-2.773437-16.855469-8.785156-32.628906-17.386718-46.660156-2.0625 1.355468-4.207032 2.640625-6.476563 4-16.285156 9.757812-36.550781 21.894531-63.308594 64.777344-7.140625 11.449218-3.652343 26.515624 7.796875 33.660156 4.019532 2.507812 8.492188 3.707031 12.90625 3.707031 8.152344 0 16.117188-4.078125 20.75-11.5 19.867188-31.84375 33.097656-40.40625 45.71875-47.984375zm0 0" fill="#c76d33"/><path d="m151.359375 64.683594c-2.273437-1.359375-4.414063-2.644532-6.480469-4-8.597656 14.03125-14.613281 29.804687-17.382812 46.660156 12.617187 7.582031 25.851562 16.140625 45.71875 47.980469 4.632812 7.425781 12.597656 11.5 20.75 11.5 4.414062 0 8.882812-1.195313 12.90625-3.703125 11.445312-7.144532 14.9375-22.214844 7.792968-33.660156-26.753906-42.882813-47.019531-55.019532-63.304687-64.777344zm0 0" fill="#c76d33"/><path d="m355.332031 128.546875c0 54.863281-44.472656 99.335937-99.332031 99.335937s-99.335938-44.472656-99.335938-99.335937c0-54.859375 44.476563-99.332031 99.335938-99.332031s99.332031 44.472656 99.332031 99.332031zm0 0" fill="#de8957"/><path d="m302.574219 83.898438c-4.269531 0-7.726563-3.460938-7.726563-7.726563v-9.058594c0-4.265625 3.457032-7.726562 7.726563-7.726562 4.265625 0 7.726562 3.460937 7.726562 7.726562v9.058594c0 4.265625-3.460937 7.726563-7.726562 7.726563zm0 0" fill="#333a41"/><path d="m209.425781 83.898438c-4.265625 0-7.726562-3.460938-7.726562-7.726563v-9.058594c0-4.265625 3.460937-7.726562 7.726562-7.726562s7.726563 3.460937 7.726563 7.726562v9.058594c0 4.265625-3.460938 7.726563-7.726563 7.726563zm0 0" fill="#333a41"/></svg>