<svg height="512pt" viewBox="-55 0 512 512.001" width="512pt" xmlns="http://www.w3.org/2000/svg"><path d="m61.578125 24.738281h-38.488281c-12.753906 0-23.089844 10.339844-23.089844 23.089844v441.085937c0 12.75 10.335938 23.085938 23.089844 23.085938h355.871094c12.75 0 23.085937-10.335938 23.085937-23.085938v-441.085937c0-12.753906-10.335937-23.089844-23.085937-23.089844zm0 0" fill="#a25753"/><path d="m378.960938 24.738281h-69.722657c12.75 0 23.085938 10.339844 23.085938 23.089844v441.085937c0 12.75-10.335938 23.085938-23.085938 23.085938h69.722657c12.75 0 23.085937-10.335938 23.085937-23.085938v-441.085937c0-12.753906-10.335937-23.089844-23.085937-23.089844zm0 0" fill="#753f3c"/><path d="m61.578125 24.738281h-12.5v442.085938h303.890625v-442.085938zm0 0" fill="#eeedee"/><path d="m340.472656 24.738281h-30.855468v277.871094c0 66.75-54.113282 120.859375-120.859376 120.859375h-139.679687v43.355469h303.890625v-442.085938zm0 0" fill="#cccbcc"/><path d="m288.6875 0h-175.328125c-9.207031 0-16.671875 7.464844-16.671875 16.671875v33.34375c0 9.210937 7.464844 16.671875 16.671875 16.671875h43.5625c0 19.605469 15.894531 35.496094 35.496094 35.496094h17.210937c19.605469 0 35.496094-15.890625 35.496094-35.496094h43.5625c9.210938 0 16.671875-7.460938 16.671875-16.671875v-33.34375c0-9.207031-7.460937-16.671875-16.671875-16.671875zm0 0" fill="#636363"/><path d="m288.6875 0h-62.058594c2.964844 9.179688 4.574219 18.972656 4.574219 29.136719 0 29.40625-13.402344 55.679687-34.429687 73.046875h12.855468c19.605469 0 35.496094-15.890625 35.496094-35.496094h43.5625c9.210938 0 16.671875-7.460938 16.671875-16.671875v-33.34375c0-9.207031-7.460937-16.671875-16.671875-16.671875zm0 0" fill="#424242"/><g fill="#a1a0a1"><path d="m296.5625 205.652344h-39.65625l-25.347656-69.210938c-1.128906-3.085937-4.125-5.074218-7.425782-4.910156-3.285156.167969-6.074218 2.457031-6.882812 5.644531l-27.226562 107.191407-26.28125-76.460938c-.960938-2.792969-3.476563-4.765625-6.417969-5.03125-2.949219-.265625-5.769531 1.222656-7.214844 3.800781l-21.867187 38.976563h-22.753907c-4.144531 0-7.5 3.359375-7.5 7.5 0 4.144531 3.355469 7.5 7.5 7.5h27.144531c2.714844 0 5.214844-1.464844 6.542969-3.828125l15.824219-28.210938 29.011719 84.402344c1.042969 3.039063 3.902343 5.0625 7.089843 5.0625.105469 0 .207032 0 .3125-.003906 3.3125-.136719 6.144532-2.433594 6.960938-5.648438l27.441406-108.046875 18.804688 51.355469c1.082031 2.953125 3.894531 4.917969 7.042968 4.917969h44.894532c4.144531 0 7.5-3.355469 7.5-7.5 0-4.140625-3.355469-7.5-7.496094-7.5zm0 0"/><path d="m296.5625 329.335938h-191.074219c-4.144531 0-7.5 3.359374-7.5 7.5 0 4.140624 3.355469 7.5 7.5 7.5h191.070313c4.144531 0 7.5-3.359376 7.5-7.5 0-4.140626-3.355469-7.5-7.496094-7.5zm0 0"/><path d="m296.5625 395.410156h-191.074219c-4.144531 0-7.5 3.359375-7.5 7.5 0 4.144532 3.355469 7.5 7.5 7.5h191.070313c4.144531 0 7.5-3.355468 7.5-7.5 0-4.140625-3.355469-7.5-7.496094-7.5zm0 0"/></g></svg>