<svg height="372pt" viewBox="0 -28 372.5 372" width="372pt" xmlns="http://www.w3.org/2000/svg"><path d="m246.5 84.25h120v72h-120zm0 0" fill="#d3ba2a"/><path d="m6.5 84.25h120v72h-120zm0 0" fill="#ffeca7"/><path d="m126.5 84.25h120v72h-120zm0 0" fill="#eee045"/><path d="m246.5 238.25h120v72h-120zm0 0" fill="#d3ba2a"/><path d="m6.5 238.25h120v72h-120zm0 0" fill="#ffeca7"/><path d="m126.5 238.25h120v72h-120zm0 0" fill="#eee045"/><path d="m366.5 162.25h-360c-3.3125 0-6-2.6875-6-6v-72c0-3.3125 2.6875-6 6-6h360c3.3125 0 6 2.6875 6 6v72c0 3.3125-2.6875 6-6 6zm-354-12h348v-60h-348zm0 0" fill="#1c2d6b"/><path d="m366.5 316.25h-360c-3.3125 0-6-2.6875-6-6v-72c0-3.3125 2.6875-6 6-6h360c3.3125 0 6 2.6875 6 6v72c0 3.3125-2.6875 6-6 6zm-354-12h348v-60h-348zm0 0" fill="#1c2d6b"/><path d="m40 217.25h98v21h-98zm0 0" fill="#ef7f72"/><path d="m234 217.25h98v21h-98zm0 0" fill="#e8383b"/><path d="m138 217.25h96v21h-96zm0 0" fill="#e95947"/><path d="m332 244.25h-292c-3.3125 0-6-2.6875-6-6v-21c0-3.3125 2.6875-6 6-6h292c3.3125 0 6 2.6875 6 6v21c0 3.3125-2.6875 6-6 6zm-286-12h280v-9h-280zm0 0" fill="#1c2d6b"/><path d="m6 196.25h120v21h-120zm0 0" fill="#a4d4a0"/><path d="m246 196.25h120v21h-120zm0 0" fill="#419b46"/><path d="m126 196.25h120v21h-120zm0 0" fill="#65bc49"/><path d="m366 223.25h-360c-3.3125 0-6-2.6875-6-6v-21c0-3.3125 2.6875-6 6-6h360c3.3125 0 6 2.6875 6 6v21c0 3.3125-2.6875 6-6 6zm-354-12h348v-9h-348zm0 0" fill="#1c2d6b"/><path d="m133 184.738281v-16.976562c0-6.359375 5.152344-11.507813 11.511719-11.507813h-98.511719c-11.046875 0-20 8.953125-20 20 0 11.042969 8.953125 20 20 20h98.511719c-6.359375-.003906-11.511719-5.15625-11.511719-11.515625zm0 0" fill="#ef7f72"/><path d="m326 156.25h-98.511719c6.359375 0 11.511719 5.152344 11.511719 11.511719v16.976562c0 6.359375-5.152344 11.507813-11.511719 11.507813h98.511719c11.046875 0 20-8.953125 20-20 0-11.042969-8.953125-19.996094-20-19.996094zm0 0" fill="#e8383b"/><path d="m239 184.738281v-16.976562c0-6.359375-5.152344-11.507813-11.511719-11.507813h-82.976562c-6.359375 0-11.511719 5.152344-11.511719 11.507813v16.976562c0 6.359375 5.152344 11.511719 11.511719 11.511719h82.976562c6.359375 0 11.511719-5.152344 11.511719-11.511719zm0 0" fill="#e95947"/><path d="m326 202.25h-280c-14.335938 0-26-11.664062-26-26s11.664062-26 26-26h280c14.335938 0 26 11.664062 26 26s-11.664062 26-26 26zm-280-40c-7.71875 0-14 6.28125-14 14s6.28125 14 14 14h280c7.71875 0 14-6.28125 14-14s-6.28125-14-14-14zm0 0" fill="#1c2d6b"/><path d="m56.5 156.25 60 36-19.5-36zm0 0" fill="#89aadb"/><path d="m136 156.25-19.5 36 60-36zm0 0" fill="#4b67b0"/><path d="m97 156.25 19.5 36 19.5-36zm0 0" fill="#6287c5"/><path d="m116.5 198.25c-1.066406 0-2.136719-.285156-3.085938-.855469l-60-36c-2.3125-1.386719-3.417968-4.148437-2.695312-6.746093.71875-2.597657 3.082031-4.398438 5.78125-4.398438h120c2.699219 0 5.0625 1.800781 5.78125 4.398438.722656 2.597656-.382812 5.359374-2.695312 6.746093l-60 36c-.949219.570313-2.019532.855469-3.085938.855469zm-38.339844-36 38.339844 23.003906 38.339844-23.003906zm0 0" fill="#1c2d6b"/><path d="m196.5 156.25 60 36-19.5-36zm0 0" fill="#89aadb"/><path d="m276 156.25-19.5 36 60-36zm0 0" fill="#4b67b0"/><path d="m237 156.25 19.5 36 19.5-36zm0 0" fill="#6287c5"/><path d="m256.5 198.25c-1.066406 0-2.136719-.285156-3.085938-.855469l-60-36c-2.3125-1.386719-3.417968-4.148437-2.695312-6.746093.71875-2.597657 3.082031-4.398438 5.78125-4.398438h120c2.699219 0 5.0625 1.800781 5.78125 4.398438.722656 2.597656-.382812 5.359374-2.695312 6.746093l-60 36c-.949219.570313-2.019532.855469-3.085938.855469zm-38.339844-36 38.339844 23.003906 38.339844-23.003906zm0 0" fill="#1c2d6b"/><path d="m180 .25h12v84h-12zm0 0" fill="#1c2d6b"/><path d="m186.5 50.886719c20.917969 0 37.875 4.027343 37.875 9 0-13.414063-16.960938-24.289063-37.875-24.289063s-37.875 10.871094-37.875 24.289063c0-4.972657 16.957031-9 37.875-9zm0 0" fill="#a4d4a0"/><path d="m224.375 59.886719c0 4.96875-16.960938 9-37.875 9s-37.875-4.03125-37.875-9c0 13.414062 16.960938 24.289062 37.875 24.289062s37.875-10.875 37.875-24.289062zm0 0" fill="#419b46"/><path d="m224.375 59.886719c0-4.972657-16.957031-9-37.875-9s-37.875 4.027343-37.875 9c0 4.96875 16.957031 9 37.875 9s37.875-4.03125 37.875-9zm0 0" fill="#65bc49"/><path d="m186.5 90.175781c-24.601562 0-43.875-13.304687-43.875-30.289062 0-16.988281 19.269531-30.289063 43.875-30.289063s43.875 13.300782 43.875 30.289063c0 16.984375-19.273438 30.289062-43.875 30.289062zm0-48.578125c-17.277344 0-31.875 8.375-31.875 18.289063 0 9.914062 14.59375 18.292969 31.875 18.292969s31.875-8.378907 31.875-18.292969c0-9.914063-14.597656-18.289063-31.875-18.289063zm0 0" fill="#1c2d6b"/></svg>